<?xml version="1.0" standalone="no"?><!DOCTYPE svg PUBLIC "-//W3C//DTD SVG 1.1//EN" "http://www.w3.org/Graphics/SVG/1.1/DTD/svg11.dtd"><svg t="1725840917966" class="icon" viewBox="0 0 1024 1024" version="1.1" xmlns="http://www.w3.org/2000/svg" p-id="4271" xmlns:xlink="http://www.w3.org/1999/xlink" width="200" height="200"><path d="M454.1952 816.9984c146.688-33.792 247.3472-28.8768 400.128 16.5376 14.848 4.4544 26.2656 16.3328 29.7984 31.1808a42.1376 42.1376 0 0 1-12.6976 40.9088 44.2368 44.2368 0 0 1-42.3936 9.6256c-129.9456-38.7072-212.736-44.544-329.472-20.6848l-17.7664 3.84-26.5728 6.2464c-116.9408 28.8256-225.8432 28.672-326.1952-0.512a42.5472 42.5472 0 0 1-29.3376-53.1968 43.7248 43.7248 0 0 1 54.2208-28.672c79.6672 23.1936 166.4512 24.576 261.0688 3.8912l39.2192-9.216z m397.5168 25.2928c-151.296-45.0048-250.368-49.8688-395.52-16.384l-39.3216 9.1648c-83.2 18.176-160.6656 19.5584-232.6528 4.1984l-16.5376-3.84-16.384-4.4544a34.6624 34.6624 0 0 0-42.9056 22.6304 33.4848 33.4848 0 0 0 23.1936 41.7792c92.928 27.0848 193.4336 28.7744 301.2096 5.12l46.9504-11.008c128-28.5696 214.016-24.064 351.8464 17.0496 11.8272 3.4816 24.6784 0.5632 33.6896-7.68a33.024 33.024 0 0 0-9.2672-54.9888l-4.3008-1.5872zM780.4416 98.6624c130.048-8.9088 183.2448 58.5728 117.8624 148.0704-36.4544 49.92-113.0496 110.7968-192.256 154.2656l-24.2688 13.1072a168.6528 168.6528 0 0 0-16.0256 10.0864l-4.1472 3.1744 3.072 1.8432c12.4928 6.912 32.9216 14.6944 59.2384 22.3232l10.1376 2.816 10.6496 2.816 14.5408 3.584a42.7008 42.7008 0 0 1 32.6144 49.152c-18.432 98.4064-106.8032 149.2992-256.8192 152.32l-14.2848 0.1024-23.552 0.512c-116.9408 4.9664-219.2384 46.4896-308.7872 125.44a44.288 44.288 0 0 1-51.5072 4.864 42.3424 42.3424 0 0 1-19.9168-46.9504C216.8832 353.28 433.9712 135.7824 763.4944 100.352l16.9472-1.6384z m110.4896 142.6944c58.6752-80.3328 15.5648-139.008-100.5568-134.144l-9.3184 0.512-16.64 1.6384C439.04 144.384 224.8192 358.9632 125.7984 748.4416a33.2288 33.2288 0 0 0 15.7184 36.864c13.0048 7.6288 29.5936 6.0416 40.8576-3.8912 86.784-76.4416 185.4976-118.528 297.5744-126.72l16.896-1.024 23.8592-0.4096c154.9312 0 244.1216-48.7424 262.2464-144.9984a33.4336 33.4336 0 0 0-21.1456-37.2224l-4.6592-1.4336-14.6432-3.584c-41.1136-10.5472-71.8848-21.9648-87.296-31.8976l-3.84-2.7136-0.2048-7.0656 4.7104-4.0448c4.096-3.328 9.216-6.8608 15.2064-10.496l6.2976-3.6864 9.5232-5.2224c83.2512-43.2128 166.2464-107.776 204.032-159.5392zM836.608 172.032c10.0864 0.512 13.6192 5.376 10.1888 13.1072l-1.6384 2.9696-10.24 14.336c-27.0336 36.9664-87.04 85.6064-150.7328 122.9312l-12.8 7.3216-16.8448 9.0112c-66.56 34.56-91.5456 72.192-71.2704 112.4352l2.8672 5.2736 4.7104 6.912c15.36 20.1728 43.8784 36.7104 88.4224 51.456l11.4688 3.6352 7.424 2.2528 2.4064 6.9632-3.4816 4.864c-24.7296 29.8496-72.3968 46.3872-144.6912 49.92l-13.824 0.512-43.4176 0.768c-84.48 2.7648-167.0656 24.576-241.3568 63.488l-15.8208 8.5504-6.7584 3.9936-6.656-5.4784 5.9904-16.7936c102.0416-282.368 281.088-436.0192 540.2112-464.128l15.9744-1.536 40.9088-2.816h8.96z m1.28 9.0624h-9.9328l-40.448 2.7648c-258.6624 22.6304-438.016 168.6528-542.0032 442.368l-8.2432 22.528 12.288-6.656A568.832 568.832 0 0 1 476.416 578.56l18.432-0.9216 43.3664-0.768c73.216-1.8432 121.6-16.0768 147.0464-41.8816l3.9936-4.4544-1.2288-0.3072c-48.7936-14.9504-81.2032-31.8464-100.1984-53.1456l-4.4544-5.376-5.0176-7.3216c-27.648-46.336-3.6352-88.9856 63.2832-126.0544l25.2928-13.568c62.976-35.1744 124.416-82.9952 154.8288-120.32l5.632-7.3216 11.008-15.3088 0.768-0.8192-1.3824 0.1536z" fill="#FDBA46" p-id="4272"></path><path d="M780.8 103.2192C442.9824 132.864 222.2592 350.4128 121.344 747.3152c-4.096 16.2816 3.072 33.28 17.8176 41.8816a39.7312 39.7312 0 0 0 46.1824-4.352c90.368-79.616 193.6896-121.5488 311.552-126.5664l23.7568-0.512c154.112 0 247.808-48.128 266.7008-148.6848a38.144 38.144 0 0 0-29.184-43.8784l-14.592-3.584c-47.0016-12.0832-77.2608-24.4224-89.4976-33.792l4.608-3.9936c5.0688-4.096 11.9808-8.7552 20.8384-13.7216l9.4208-5.1712c82.3296-42.7008 166.656-107.6224 205.6192-160.9216 62.1056-84.992 14.0288-149.6064-113.8688-140.8zM669.184 328.704l-16.7936 8.96c-66.7648 34.7136-98.7136 76.3392-70.0416 124.3136l4.8128 7.0656c17.7152 23.296 51.3536 41.216 102.2464 56.7808l7.3728 2.2016-3.2768 4.608c-24.7808 29.9008-74.9056 46.6944-155.136 48.7424l-43.4176 0.768a564.224 564.224 0 0 0-259.328 72.704l-6.7584 3.9424 5.9392-16.7936C338.5856 354.816 521.728 202.5472 786.944 179.3024l40.6016-2.7648h8.704c8.1408 0.512 8.8576 2.9184 5.12 8.96l-10.24 14.2336c-28.672 39.2192-94.8736 91.4944-161.9968 128.8704v0.1024z m-234.1888 497.5616c159.744-39.424 261.7856-34.816 418.048 11.6224 13.312 3.9936 23.5008 14.592 26.624 27.8528a37.5808 37.5808 0 0 1-11.3152 36.5056 39.68 39.68 0 0 1-38.0416 8.6528c-134.1952-39.936-219.7504-45.9264-349.5936-16.896l-26.624 6.1952c-115.9168 28.6208-224.0512 28.6208-323.7888-0.4608a38.0416 38.0416 0 0 1-26.2656-47.4624 39.2192 39.2192 0 0 1 48.5888-25.6512c85.6064 24.9344 179.456 24.9344 282.4704-0.4608l-0.1024 0.1024z" fill="#FDBA46" p-id="4273"></path></svg>