<?xml version="1.0" standalone="no"?><!DOCTYPE svg PUBLIC "-//W3C//DTD SVG 1.1//EN" "http://www.w3.org/Graphics/SVG/1.1/DTD/svg11.dtd"><svg t="1725841575013" class="icon" viewBox="0 0 1024 1024" version="1.1" xmlns="http://www.w3.org/2000/svg" p-id="7684" xmlns:xlink="http://www.w3.org/1999/xlink" width="200" height="200"><path d="M288 64h448c61.856 0 112 50.144 112 112v672c0 61.856-50.144 112-112 112H288c-61.856 0-112-50.144-112-112V176C176 114.144 226.144 64 288 64z m0 48a64 64 0 0 0-64 64v672a64 64 0 0 0 64 64h448a64 64 0 0 0 64-64V176a64 64 0 0 0-64-64H288z" fill="#FDBA46" p-id="7685"></path><path d="M512 584c110.456 0 200-89.544 200-200S622.456 184 512 184 312 273.544 312 384s89.544 200 200 200z m0-48c-83.944 0-152-68.056-152-152s68.056-152 152-152 152 68.056 152 152-68.056 152-152 152z" fill="#FDBA46" p-id="7686"></path><path d="M576 728m24 0l112 0q24 0 24 24l0 0q0 24-24 24l-112 0q-24 0-24-24l0 0q0-24 24-24Z" fill="#FDBA46" p-id="7687"></path><path d="M288 728m24 0l112 0q24 0 24 24l0 0q0 24-24 24l-112 0q-24 0-24-24l0 0q0-24 24-24Z" fill="#FDBA46" p-id="7688"></path></svg>