<?xml version="1.0" standalone="no"?><!DOCTYPE svg PUBLIC "-//W3C//DTD SVG 1.1//EN" "http://www.w3.org/Graphics/SVG/1.1/DTD/svg11.dtd"><svg t="1725841361708" class="icon" viewBox="0 0 1024 1024" version="1.1" xmlns="http://www.w3.org/2000/svg" p-id="5535" xmlns:xlink="http://www.w3.org/1999/xlink" width="200" height="200"><path d="M73.5 960v-52.4h886.9V960H73.5z m0-210.9v-52.3h886.9v52.3H73.5z m371.7-170l-56.6-148.5h-203l-53.3 148.5H64.2L250.7 88.6h69.2l198.7 490.5h-73.4zM257.5 233.8l-53.3 143.7h164.5L318 241.7c-15.5-41.4-27-75.3-34.5-101.7-6.3 31.9-15 63.2-26.1 93.7l0.1 0.1zM647.2 538v-52.3h313.2V538H647.2z m0-210.9v-52.3h313.2v52.3H647.2z m0-210.8V63.9h313.2v52.3l-313.2 0.1z" fill="#FDBA46" p-id="5536"></path></svg>