<?xml version="1.0" encoding="UTF-8"?>
<!-- Do not edit this file with editors other than draw.io -->
<!DOCTYPE svg PUBLIC "-//W3C//DTD SVG 1.1//EN" "http://www.w3.org/Graphics/SVG/1.1/DTD/svg11.dtd">
<svg xmlns="http://www.w3.org/2000/svg" xmlns:xlink="http://www.w3.org/1999/xlink" version="1.1" width="362px" height="157px" viewBox="-0.5 -0.5 362 157" content="&lt;mxfile host=&quot;app.diagrams.net&quot; modified=&quot;2024-06-11T15:39:46.697Z&quot; agent=&quot;Mozilla/5.0 (Windows NT 10.0; Win64; x64) AppleWebKit/537.36 (KHTML, like Gecko) Chrome/125.0.0.0 Safari/537.36 Edg/125.0.0.0&quot; etag=&quot;5E-nI2gfIJ8AFfjllo9B&quot; version=&quot;24.5.3&quot; type=&quot;device&quot; scale=&quot;1&quot; border=&quot;0&quot;&gt;&#10;  &lt;diagram name=&quot;第 1 页&quot; id=&quot;7UpL7EmL1X9WOuy76Tm_&quot;&gt;&#10;    &lt;mxGraphModel dx=&quot;1059&quot; dy=&quot;558&quot; grid=&quot;1&quot; gridSize=&quot;10&quot; guides=&quot;1&quot; tooltips=&quot;1&quot; connect=&quot;1&quot; arrows=&quot;1&quot; fold=&quot;1&quot; page=&quot;1&quot; pageScale=&quot;1&quot; pageWidth=&quot;827&quot; pageHeight=&quot;1169&quot; math=&quot;0&quot; shadow=&quot;0&quot;&gt;&#10;      &lt;root&gt;&#10;        &lt;mxCell id=&quot;0&quot; /&gt;&#10;        &lt;mxCell id=&quot;1&quot; parent=&quot;0&quot; /&gt;&#10;        &lt;mxCell id=&quot;3hq3fw6OeW7KAoKT7n-A-1&quot; value=&quot;&quot; style=&quot;fontColor=#0066CC;verticalAlign=top;verticalLabelPosition=bottom;labelPosition=center;align=center;html=1;outlineConnect=0;fillColor=#CCCCCC;strokeColor=#6881B3;gradientColor=none;gradientDirection=north;strokeWidth=2;shape=mxgraph.networks.monitor;&quot; vertex=&quot;1&quot; parent=&quot;1&quot;&gt;&#10;          &lt;mxGeometry x=&quot;250&quot; y=&quot;255&quot; width=&quot;80&quot; height=&quot;65&quot; as=&quot;geometry&quot; /&gt;&#10;        &lt;/mxCell&gt;&#10;        &lt;mxCell id=&quot;3hq3fw6OeW7KAoKT7n-A-2&quot; value=&quot;&quot; style=&quot;fontColor=#0066CC;verticalAlign=top;verticalLabelPosition=bottom;labelPosition=center;align=center;html=1;outlineConnect=0;fillColor=#CCCCCC;strokeColor=#6881B3;gradientColor=none;gradientDirection=north;strokeWidth=2;shape=mxgraph.networks.laptop;&quot; vertex=&quot;1&quot; parent=&quot;1&quot;&gt;&#10;          &lt;mxGeometry x=&quot;510&quot; y=&quot;260&quot; width=&quot;100&quot; height=&quot;55&quot; as=&quot;geometry&quot; /&gt;&#10;        &lt;/mxCell&gt;&#10;        &lt;mxCell id=&quot;3hq3fw6OeW7KAoKT7n-A-3&quot; value=&quot;&quot; style=&quot;fontColor=#0066CC;verticalAlign=top;verticalLabelPosition=bottom;labelPosition=center;align=center;html=1;outlineConnect=0;fillColor=#CCCCCC;strokeColor=#6881B3;gradientColor=none;gradientDirection=north;strokeWidth=2;shape=mxgraph.networks.usb_stick;&quot; vertex=&quot;1&quot; parent=&quot;1&quot;&gt;&#10;          &lt;mxGeometry x=&quot;410&quot; y=&quot;340&quot; width=&quot;30&quot; height=&quot;70&quot; as=&quot;geometry&quot; /&gt;&#10;        &lt;/mxCell&gt;&#10;        &lt;mxCell id=&quot;3hq3fw6OeW7KAoKT7n-A-4&quot; style=&quot;edgeStyle=orthogonalEdgeStyle;rounded=0;orthogonalLoop=1;jettySize=auto;html=1;exitX=0.5;exitY=1;exitDx=0;exitDy=0;exitPerimeter=0;entryX=0;entryY=0.5;entryDx=0;entryDy=0;entryPerimeter=0;curved=1;flowAnimation=1;&quot; edge=&quot;1&quot; parent=&quot;1&quot; source=&quot;3hq3fw6OeW7KAoKT7n-A-1&quot; target=&quot;3hq3fw6OeW7KAoKT7n-A-3&quot;&gt;&#10;          &lt;mxGeometry relative=&quot;1&quot; as=&quot;geometry&quot; /&gt;&#10;        &lt;/mxCell&gt;&#10;        &lt;mxCell id=&quot;3hq3fw6OeW7KAoKT7n-A-5&quot; style=&quot;edgeStyle=orthogonalEdgeStyle;rounded=0;orthogonalLoop=1;jettySize=auto;html=1;exitX=1;exitY=0.5;exitDx=0;exitDy=0;exitPerimeter=0;entryX=0.5;entryY=1;entryDx=0;entryDy=0;entryPerimeter=0;curved=1;flowAnimation=1;&quot; edge=&quot;1&quot; parent=&quot;1&quot; source=&quot;3hq3fw6OeW7KAoKT7n-A-3&quot; target=&quot;3hq3fw6OeW7KAoKT7n-A-2&quot;&gt;&#10;          &lt;mxGeometry relative=&quot;1&quot; as=&quot;geometry&quot; /&gt;&#10;        &lt;/mxCell&gt;&#10;      &lt;/root&gt;&#10;    &lt;/mxGraphModel&gt;&#10;  &lt;/diagram&gt;&#10;&lt;/mxfile&gt;&#10;" style="background-color: rgb(255, 255, 255);"><defs><style>@keyframes ge-flow-animation-2SIIkTfRkZsmpxqaDu19 {&#xa;  to {&#xa;    stroke-dashoffset: 0;&#xa;  }&#xa;}</style></defs><rect fill="#ffffff" width="100%" height="100%" x="0" y="0"/><g><g id="cell-3hq3fw6OeW7KAoKT7n-A-1"><g><rect x="1" y="1" width="80" height="46.06" fill="#cccccc" stroke="#6881b3" stroke-width="2" pointer-events="all"/><path d="M 25.5 59.04 L 56.4 59.04 L 62.5 66 L 19.5 66 Z" fill="#cccccc" stroke="#6881b3" stroke-width="2" stroke-linejoin="round" stroke-miterlimit="10" pointer-events="all"/><rect x="31" y="47.06" width="20" height="15.35" fill="#cccccc" stroke="#6881b3" stroke-width="2" pointer-events="all"/><rect x="4" y="4.07" width="73" height="39.92" fill="#ffffff" stroke="none" pointer-events="all"/></g></g><g id="cell-3hq3fw6OeW7KAoKT7n-A-2"><g><path d="M 274.95 43.57 L 346.81 43.57 L 361 61 L 261 61 Z M 277.5 6 L 344 6 L 345.98 43.14 L 275.53 43.14 Z" fill="#cccccc" stroke="#6881b3" stroke-width="1.9" stroke-linejoin="round" stroke-miterlimit="10" pointer-events="all"/><path d="M 278 47.9 L 344.99 47.9 M 273.56 52.67 L 349.42 52.67 M 292.77 56.95 L 327.26 56.95" fill="none" stroke="#6881b3" stroke-width="1.9" stroke-linejoin="round" stroke-miterlimit="10" pointer-events="all"/><path d="M 280.75 9.33 L 340.85 9.33 L 342.53 39.81 L 278.98 39.81 Z" fill="#ffffff" stroke="none" pointer-events="all"/></g></g><g id="cell-3hq3fw6OeW7KAoKT7n-A-3"><g><path d="M 191 109.09 L 191 147.11 C 190.81 152.07 186.76 156 181.82 155.99 L 169.12 155.99 C 164.6 155.47 161.14 151.69 161 147.11 L 161 109.09 Z M 186.76 122.24 L 180.06 122.24 L 180.06 128.64 L 181.82 128.64 C 181.85 129.48 181.45 130.28 180.76 130.77 L 177.59 132.54 L 177.59 119.75 L 180.41 119.75 L 175.82 113 L 170.88 119.75 L 174.06 119.75 L 174.06 136.45 L 171.24 134.68 C 170.35 134.16 169.81 133.21 169.82 132.19 L 169.82 129.7 C 171.03 128.98 171.6 127.54 171.23 126.19 C 170.86 124.83 169.63 123.89 168.24 123.89 C 166.84 123.89 165.61 124.83 165.24 126.19 C 164.87 127.54 165.45 128.98 166.65 129.7 L 166.65 133.25 C 166.78 134.98 167.69 136.55 169.12 137.52 L 174.06 140.72 L 174.06 142.49 C 171.96 143.34 170.75 145.57 171.18 147.81 C 171.61 150.05 173.56 151.67 175.82 151.67 C 178.09 151.67 180.04 150.05 180.47 147.81 C 180.9 145.57 179.69 143.34 177.59 142.49 L 177.59 136.1 L 181.47 134.32 C 183.21 133.68 184.53 132.22 185 130.41 L 185 128.64 L 186.76 128.64 Z M 167.35 106.96 C 166.13 106.78 165.22 105.72 165.24 104.48 L 165.24 87.78 C 165.52 86.81 166.35 86.1 167.35 86 L 184.29 86 C 185.52 86.18 186.42 87.24 186.41 88.49 L 186.41 104.83 C 186.26 105.94 185.4 106.81 184.29 106.96 Z M 172.65 102.7 L 172.65 98.08 L 168.41 98.08 L 168.41 102.7 Z M 179 102.7 L 183.24 102.7 L 183.24 98.08 L 179 98.08 Z" fill="#cccccc" stroke="#6881b3" stroke-width="1.41" stroke-miterlimit="10" pointer-events="all"/></g></g><g id="cell-3hq3fw6OeW7KAoKT7n-A-4"><g><path d="M 41 66 Q 41 121 154.63 121" fill="none" stroke="rgb(0, 0, 0)" stroke-miterlimit="10" pointer-events="stroke" stroke-dasharray="8" style="animation: 500ms linear 0s infinite normal none running ge-flow-animation-2SIIkTfRkZsmpxqaDu19; stroke-dashoffset: 16;"/><path d="M 159.88 121 L 152.88 124.5 L 154.63 121 L 152.88 117.5 Z" fill="rgb(0, 0, 0)" stroke="rgb(0, 0, 0)" stroke-miterlimit="10" pointer-events="all"/></g></g><g id="cell-3hq3fw6OeW7KAoKT7n-A-5"><g><path d="M 191 121 Q 311 121 311 67.37" fill="none" stroke="rgb(0, 0, 0)" stroke-miterlimit="10" pointer-events="stroke" stroke-dasharray="8" style="animation: 500ms linear 0s infinite normal none running ge-flow-animation-2SIIkTfRkZsmpxqaDu19; stroke-dashoffset: 16;"/><path d="M 311 62.12 L 314.5 69.12 L 311 67.37 L 307.5 69.12 Z" fill="rgb(0, 0, 0)" stroke="rgb(0, 0, 0)" stroke-miterlimit="10" pointer-events="all"/></g></g></g></svg>